<?xml version="1.0" encoding="utf-8"?>
<!-- Generator: Adobe Illustrator 25.0.0, SVG Export Plug-In . SVG Version: 6.00 Build 0)  -->
<svg version="1.1" xmlns="http://www.w3.org/2000/svg" xmlns:xlink="http://www.w3.org/1999/xlink" x="0px" y="0px"
	 viewBox="0 0 2135.79 1423.86" style="enable-background:new 0 0 2135.79 1423.86;" xml:space="preserve">
<style type="text/css">
	.st0{fill:#4C4C4C;}
	.st1{opacity:0.14;fill:#313131;}
	.st2{fill:#313131;}
	.st3{fill:url(#SVGID_1_);}
	.st4{fill:url(#SVGID_2_);}
	.st5{fill:#D85555;}
	.st6{fill:#A6C144;}
	.st7{fill:#BFBFBF;}
	.st8{fill:#777777;}
</style>
<g id="Layer_4">
</g>
<g id="Layer_3">
</g>
<g id="Layer_2">
	<path class="st0" d="M634.89-0.07v1424h866v-1424H634.89z M1388.94,1004.21c0,14.48-12.2,26.22-27.25,26.22H776.86
		c-15.05,0-27.25-11.74-27.25-26.22V97.64c0-14.48,12.2-26.22,27.25-26.22h585.01c14.95,0,27.07,11.66,27.07,26.04V1004.21z"/>
	<path class="st1" d="M712.03,79.54v951.83c0,27.37,22.19,49.56,49.56,49.56h605.34c31.39,0,56.84-25.45,56.84-56.84V77.93
		c0-31.48-25.52-57-57-57H770.64C738.27,20.93,712.03,47.17,712.03,79.54z M779.4,62.61h577.17c14.75,0,26.71,11.87,26.71,26.52
		v923.41v0.18c0,14.65-11.96,26.52-26.71,26.52h-0.18H779.4h-0.18c-14.75,0-26.71-11.87-26.71-26.52v-0.18V89.31v-0.18
		c0-14.65,11.96-26.52,26.71-26.52H779.4z"/>
	<path class="st2" d="M722.39,94.3v915.64c0,33.86,27.45,61.31,61.31,61.31h571.82c33.49,0,60.64-27.15,60.64-60.64V92.74
		c0-34.32-27.82-62.14-62.14-62.14H786.09C750.91,30.6,722.39,59.12,722.39,94.3z M788.06,71.53h562.6
		c14.38,0,26.03,11.66,26.03,26.03v906.56v0.18c0,14.38-11.66,26.03-26.03,26.03h-0.18H788.06h-0.18
		c-14.38,0-26.03-11.66-26.03-26.03v-0.18V97.74v-0.18c0-14.38,11.66-26.03,26.03-26.03H788.06z"/>
	
		<linearGradient id="SVGID_1_" gradientUnits="userSpaceOnUse" x1="281.1033" y1="745.1422" x2="1120.657" y2="259.3384" gradientTransform="matrix(0 1 -1 0 1573.8228 -145.9645)">
		<stop  offset="0" style="stop-color:#353535"/>
		<stop  offset="0.3101" style="stop-color:#969696"/>
		<stop  offset="0.5391" style="stop-color:#3F3F3F"/>
		<stop  offset="0.7514" style="stop-color:#999999"/>
		<stop  offset="0.9944" style="stop-color:#353535"/>
	</linearGradient>
	<path class="st3" d="M722.39,84.08v933.69c0,29.54,23.94,53.48,53.48,53.48h586.81c29.54,0,53.48-23.94,53.48-53.48V84.08
		c0-29.54-23.94-53.48-53.48-53.48H775.87C746.34,30.6,722.39,54.55,722.39,84.08z M788.06,71.53h562.42
		c14.48,0,26.21,11.73,26.21,26.21v906.38v0c0,14.48-11.73,26.21-26.21,26.21h0H788.06l0,0c-14.48,0-26.21-11.73-26.21-26.21v0
		V97.74v0C761.85,83.26,773.59,71.53,788.06,71.53L788.06,71.53z"/>
	<path class="st2" d="M761.85,1004.12v0.18c0,14.38,11.66,26.03,26.03,26.03h0.18C773.59,1030.33,761.85,1018.6,761.85,1004.12z"/>
	<path class="st2" d="M1350.49,1030.33h0.18c14.38,0,26.03-11.66,26.03-26.03v-0.18C1376.7,1018.6,1364.96,1030.33,1350.49,1030.33z
		"/>
	<path class="st2" d="M761.85,97.56v0.18c0-14.48,11.73-26.21,26.21-26.21h-0.18C773.51,71.53,761.85,83.18,761.85,97.56z"/>
	<g>
		<g>
			<g>
				<linearGradient id="SVGID_2_" gradientUnits="userSpaceOnUse" x1="819.9932" y1="1175.4125" x2="1020.0806" y2="1275.4562">
					<stop  offset="0.2683" style="stop-color:#4C4C4C"/>
					<stop  offset="0.4888" style="stop-color:#B2B2B2"/>
					<stop  offset="0.7581" style="stop-color:#565656"/>
				</linearGradient>
				<path class="st4" d="M875.87,1350.59c-2.58,0-4.67-2.1-4.67-4.67v-216.57c0-2.58,2.1-4.67,4.67-4.67h137.1
					c2.58,0,4.67,2.1,4.67,4.67v216.57c0,2.58-2.1,4.67-4.67,4.67H875.87z"/>
			</g>
			<path class="st2" d="M999.1,1203.85c0,0.43-0.98,0.79-2.19,0.79H891.94c-1.21,0-2.19-0.35-2.19-0.79v-59.53
				c0-0.43,0.98-0.78,2.19-0.78H996.9c1.21,0,2.19,0.35,2.19,0.78V1203.85z"/>
			<g>
				<path class="st5" d="M939.67,1317.51h-42.04c-1.58,0-2.86,1.03-2.86,2.3v14.93c0,1.27,1.28,2.3,2.86,2.3h42.04
					c1.58,0,2.86-1.03,2.86-2.3v-14.93C942.54,1318.54,941.25,1317.51,939.67,1317.51z"/>
				<path class="st6" d="M993.37,1317.51h-42.04c-1.58,0-2.86,1.03-2.86,2.3v14.93c0,1.27,1.28,2.3,2.86,2.3h42.04
					c1.58,0,2.86-1.03,2.86-2.3v-14.93C996.23,1318.54,994.95,1317.51,993.37,1317.51z"/>
			</g>
			<g>
				<path class="st7" d="M916.24,1222.29h-18.62c-1.58,0-2.86,1.28-2.86,2.86v18.62c0,1.58,1.28,2.86,2.86,2.86h18.62
					c1.58,0,2.86-1.28,2.86-2.86v-18.62C919.11,1223.57,917.83,1222.29,916.24,1222.29z"/>
				<path class="st7" d="M954.81,1222.29h-18.62c-1.58,0-2.86,1.28-2.86,2.86v18.62c0,1.58,1.28,2.86,2.86,2.86h18.62
					c1.58,0,2.86-1.28,2.86-2.86v-18.62C957.67,1223.57,956.39,1222.29,954.81,1222.29z"/>
				<path class="st7" d="M993.37,1222.29h-18.61c-1.58,0-2.87,1.28-2.87,2.86v18.62c0,1.58,1.28,2.86,2.87,2.86h18.61
					c1.58,0,2.86-1.28,2.86-2.86v-18.62C996.23,1223.57,994.95,1222.29,993.37,1222.29z"/>
				<path class="st7" d="M916.24,1253.79h-18.62c-1.58,0-2.86,1.28-2.86,2.86v18.61c0,1.58,1.28,2.87,2.86,2.87h18.62
					c1.58,0,2.86-1.28,2.86-2.87v-18.61C919.11,1255.08,917.83,1253.79,916.24,1253.79z"/>
				<path class="st7" d="M954.81,1253.79h-18.62c-1.58,0-2.86,1.28-2.86,2.86v18.61c0,1.58,1.28,2.87,2.86,2.87h18.62
					c1.58,0,2.86-1.28,2.86-2.87v-18.61C957.67,1255.08,956.39,1253.79,954.81,1253.79z"/>
				<path class="st7" d="M993.37,1253.79h-18.61c-1.58,0-2.87,1.28-2.87,2.86v18.61c0,1.58,1.28,2.87,2.87,2.87h18.61
					c1.58,0,2.86-1.28,2.86-2.87v-18.61C996.23,1255.08,994.95,1253.79,993.37,1253.79z"/>
				<path class="st7" d="M916.24,1285.3h-18.62c-1.58,0-2.86,1.28-2.86,2.87v18.61c0,1.58,1.28,2.86,2.86,2.86h18.62
					c1.58,0,2.86-1.28,2.86-2.86v-18.61C919.11,1286.58,917.83,1285.3,916.24,1285.3z"/>
				<path class="st7" d="M954.81,1285.3h-18.62c-1.58,0-2.86,1.28-2.86,2.87v18.61c0,1.58,1.28,2.86,2.86,2.86h18.62
					c1.58,0,2.86-1.28,2.86-2.86v-18.61C957.67,1286.58,956.39,1285.3,954.81,1285.3z"/>
				<path class="st7" d="M993.37,1285.3h-18.61c-1.58,0-2.87,1.28-2.87,2.87v18.61c0,1.58,1.28,2.86,2.87,2.86h18.61
					c1.58,0,2.86-1.28,2.86-2.86v-18.61C996.23,1286.58,994.95,1285.3,993.37,1285.3z"/>
			</g>
		</g>
		<g>
			<rect x="1119.53" y="1279.25" class="st2" width="134.87" height="10.75"/>
			<path class="st8" d="M1259.62,1273.93h-145.73c-2.74,0-4.97,0.21-4.97,0.48v22.07c0,0.26,2.23,0.48,4.97,0.48h145.73
				c2.74,0,4.97-0.21,4.97-0.48v-22.07C1264.59,1274.14,1262.36,1273.93,1259.62,1273.93z M1253.83,1289.76
				c0,0.12-1.92,0.22-4.28,0.22h-125.59c-2.36,0-4.28-0.1-4.28-0.22v-10.3c0-0.12,1.92-0.22,4.28-0.22h125.59
				c2.36,0,4.28,0.1,4.28,0.22V1289.76z"/>
		</g>
	</g>
	<path class="st2" d="M1361.87,71.43H776.86c-15.05,0-27.25,11.74-27.25,26.22v906.57c0,14.48,12.2,26.22,27.25,26.22h584.83
		c15.05,0,27.25-11.74,27.25-26.22V97.47C1388.94,83.09,1376.82,71.43,1361.87,71.43z M1376.28,992.27
		c0,14.38-12.12,26.04-27.07,26.04H789.35c-14.95,0-27.07-11.66-27.07-26.04v-882.6c0-14.38,12.12-26.04,27.07-26.04h559.86
		c14.95,0,27.07,11.66,27.07,26.04V992.27z"/>
</g>
</svg>
