<?xml version="1.0" encoding="utf-8"?>
<!-- Generator: Adobe Illustrator 25.0.0, SVG Export Plug-In . SVG Version: 6.00 Build 0)  -->
<svg version="1.1" id="Layer_1" xmlns="http://www.w3.org/2000/svg" xmlns:xlink="http://www.w3.org/1999/xlink" x="0px" y="0px"
	 viewBox="0 0 442.55 338.55" style="enable-background:new 0 0 442.55 338.55;" xml:space="preserve">
<style type="text/css">
	.st0{fill:#1A1A1A;}
</style>
<g>
	<path class="st0" d="M311.41,152.11H131.15c-2.37,0-4.29-1.92-4.29-4.29c0-40.23,42.36-72.96,94.42-72.96s94.42,32.73,94.42,72.96
		C315.7,150.19,313.78,152.11,311.41,152.11z M135.63,143.52h171.3c-2.96-33.5-40.24-60.09-85.65-60.09S138.58,110.02,135.63,143.52
		z"/>
	<path class="st0" d="M298.53,212.2H144.02c-9.47,0-17.17-7.7-17.17-17.17c0-9.47,7.7-17.17,17.17-17.17h21.46
		c2.37,0,4.29,1.92,4.29,4.29c0,2.37-1.92,4.29-4.29,4.29h-21.46c-4.73,0-8.58,3.85-8.58,8.58c0,4.73,3.85,8.59,8.58,8.59h154.51
		c4.73,0,8.58-3.85,8.58-8.59c0-4.73-3.85-8.58-8.58-8.58h-68.67c-2.37,0-4.29-1.92-4.29-4.29c0-2.37,1.92-4.29,4.29-4.29h68.67
		c9.47,0,17.17,7.7,17.17,17.17C315.7,204.49,308,212.2,298.53,212.2z"/>
	<path class="st0" d="M294.24,263.7H148.31c-11.83,0-21.46-9.63-21.46-21.46v-8.59c0-2.37,1.92-4.29,4.29-4.29
		c2.37,0,4.29,1.92,4.29,4.29v8.59c0,7.1,5.78,12.88,12.88,12.88h145.93c7.1,0,12.88-5.78,12.88-12.88v-8.59
		c0-2.37,1.92-4.29,4.29-4.29s4.29,1.92,4.29,4.29v8.59C315.7,254.07,306.07,263.7,294.24,263.7z"/>
	<path class="st0" d="M311.41,237.95c-5.71,0-8.62-3.33-10.75-5.75c-1.88-2.14-2.62-2.83-4.3-2.83c-1.68,0-2.42,0.69-4.3,2.83
		c-2.13,2.43-5.04,5.75-10.75,5.75c-5.7,0-8.74-3.46-10.74-5.76c-1.87-2.14-2.61-2.83-4.28-2.83c-1.67,0-2.41,0.69-4.28,2.83
		c-2.01,2.29-5.04,5.76-10.74,5.76s-8.74-3.47-10.74-5.76c-1.87-2.14-2.61-2.83-4.28-2.83c-1.66,0-2.4,0.69-4.27,2.82
		c-2,2.29-5.03,5.76-10.73,5.76c-5.7,0-8.73-3.46-10.74-5.76c-1.87-2.14-2.61-2.83-4.28-2.83c-1.67,0-2.41,0.69-4.28,2.83
		c-2.01,2.29-5.04,5.76-10.74,5.76c-5.7,0-8.73-3.47-10.74-5.76c-1.87-2.14-2.61-2.83-4.28-2.83c-1.66,0-2.41,0.69-4.27,2.82
		c-2,2.29-5.04,5.76-10.73,5.76c-5.7,0-8.73-3.47-10.74-5.76c-1.87-2.14-2.61-2.83-4.28-2.83c-1.66,0-2.41,0.69-4.27,2.82
		c-2,2.29-5.03,5.76-10.73,5.76c-2.37,0-4.29-1.92-4.29-4.29v-8.58c0-11.83,9.63-21.46,21.46-21.46h145.93
		c11.83,0,21.46,9.63,21.46,21.46v8.58C315.7,236.03,313.78,237.95,311.41,237.95z M266.28,220.78c5.7,0,8.74,3.46,10.74,5.76
		c1.87,2.14,2.61,2.83,4.28,2.83c1.68,0,2.42-0.69,4.3-2.83c2.13-2.43,5.05-5.75,10.75-5.75c5.71,0,8.63,3.33,10.75,5.75
		c0,0,0,0,0,0.01v-1.47c0-7.1-5.78-12.88-12.88-12.88H148.31c-7.1,0-12.88,5.78-12.88,12.88v1.44c2-2.29,5.03-5.73,10.71-5.73
		c5.7,0,8.73,3.47,10.74,5.76c1.87,2.14,2.61,2.83,4.28,2.83c1.66,0,2.41-0.69,4.27-2.82c2-2.29,5.04-5.76,10.73-5.76
		c5.7,0,8.73,3.47,10.74,5.76c1.87,2.14,2.61,2.83,4.28,2.83c1.67,0,2.41-0.69,4.28-2.83c2.01-2.29,5.04-5.76,10.74-5.76
		c5.7,0,8.74,3.47,10.74,5.76c1.87,2.14,2.61,2.83,4.28,2.83c1.66,0,2.4-0.69,4.27-2.82c2-2.29,5.03-5.76,10.73-5.76
		c5.7,0,8.73,3.46,10.74,5.76c1.87,2.14,2.61,2.83,4.28,2.83s2.41-0.69,4.28-2.83C257.54,224.25,260.58,220.78,266.28,220.78z"/>
	<path class="st0" d="M191.23,195.03c-0.24,0-0.48-0.02-0.72-0.06c-1.16-0.2-2.19-0.87-2.85-1.85l-13.35-20.02
		c-1.6-2.39-4.26-3.82-7.14-3.82h-27.45c-2.37,0-4.29-1.92-4.29-4.29s1.92-4.29,4.29-4.29h27.45c5.75,0,11.09,2.86,14.28,7.64
		l10.83,16.24l23.84-17.88c5.16-3.88,11.57-6.01,18.03-6.01h68.67c2.37,0,4.29,1.92,4.29,4.29s-1.92,4.29-4.29,4.29h-68.67
		c-4.61,0-9.19,1.53-12.88,4.29l-27.47,20.6C193.06,194.73,192.16,195.03,191.23,195.03z"/>
	<path class="st0" d="M191.24,117.77c-1.57,0-3.09-0.87-3.84-2.37l-4.29-8.58c-1.06-2.12-0.2-4.7,1.92-5.76
		c2.11-1.06,4.7-0.2,5.76,1.92l4.29,8.58c1.06,2.12,0.2,4.7-1.92,5.76C192.54,117.63,191.88,117.77,191.24,117.77z"/>
	<path class="st0" d="M161.19,130.65c-0.65,0-1.3-0.15-1.92-0.45c-2.12-1.06-2.98-3.64-1.92-5.76l4.29-8.59
		c1.06-2.12,3.63-2.98,5.76-1.92c2.12,1.06,2.98,3.64,1.92,5.76l-4.29,8.59C164.28,129.78,162.76,130.65,161.19,130.65z"/>
	<path class="st0" d="M247.03,126.36c-0.65,0-1.3-0.15-1.92-0.45c-2.12-1.06-2.98-3.64-1.92-5.76l4.29-8.58
		c1.06-2.12,3.63-2.98,5.76-1.92c2.12,1.06,2.98,3.64,1.92,5.76l-4.29,8.58C250.12,125.49,248.6,126.36,247.03,126.36z"/>
	<path class="st0" d="M281.37,130.65c-1.57,0-3.09-0.87-3.84-2.37l-4.29-8.59c-1.06-2.12-0.2-4.7,1.92-5.76
		c2.12-1.06,4.7-0.2,5.76,1.92l4.29,8.59c1.06,2.12,0.2,4.7-1.92,5.76C282.67,130.51,282.01,130.65,281.37,130.65z"/>
	<path class="st0" d="M234.15,104.9c-0.65,0-1.3-0.15-1.92-0.45l-8.59-4.29c-2.12-1.06-2.98-3.64-1.92-5.76
		c1.06-2.12,3.64-2.98,5.76-1.92l8.59,4.29c2.12,1.06,2.98,3.64,1.92,5.76C237.24,104.03,235.72,104.9,234.15,104.9z"/>
	<path class="st0" d="M204.11,130.65c-1.57,0-3.09-0.87-3.84-2.37c-1.06-2.12-0.2-4.7,1.92-5.76l8.59-4.29
		c2.11-1.06,4.7-0.2,5.76,1.92c1.06,2.12,0.2,4.7-1.92,5.76l-8.59,4.29C205.41,130.51,204.76,130.65,204.11,130.65z"/>
</g>
</svg>
