<?xml version="1.0" encoding="utf-8"?>
<!-- Generator: Adobe Illustrator 25.0.0, SVG Export Plug-In . SVG Version: 6.00 Build 0)  -->
<svg version="1.1" id="Layer_1" xmlns="http://www.w3.org/2000/svg" xmlns:xlink="http://www.w3.org/1999/xlink" x="0px" y="0px"
	 viewBox="0 0 442.55 338.55" style="enable-background:new 0 0 442.55 338.55;" xml:space="preserve">
<style type="text/css">
	.st0{fill:#1A1A1A;}
</style>
<g>
	<g>
		<g>
			<path class="st0" d="M256.94,126.41v-16.72c0-1.54,1.97-2.79,4.4-2.79c2.43,0,4.4,1.25,4.4,2.79v16.72c0,1.54-1.97,2.79-4.4,2.79
				C258.9,129.2,256.94,127.95,256.94,126.41z"/>
		</g>
		<g>
			<path class="st0" d="M303.51,127.46v16.71c0,1.54-1.98,2.78-4.45,2.78c-2.46,0-4.45-1.24-4.45-2.78v-12.98
				c2-1.94,4.25-3.69,6.69-5.21v-0.93c0.31,0.12,0.59,0.25,0.84,0.41C302.99,125.95,303.51,126.68,303.51,127.46z"/>
		</g>
		<g>
			<path class="st0" d="M256.94,163.42V146.7c0-1.54,1.97-2.79,4.4-2.79c2.43,0,4.4,1.25,4.4,2.79v16.72c0,1.54-1.97,2.79-4.4,2.79
				C258.9,166.21,256.94,164.96,256.94,163.42z"/>
		</g>
		<g>
			<path class="st0" d="M297.57,185.27c0.46,0.12,0.97,0.18,1.49,0.18c0.82,0,1.59-0.13,2.25-0.38c1.31-0.47,2.2-1.38,2.2-2.4v-2.03
				v-14.69c0-1.54-1.98-2.8-4.45-2.8s-4.45,1.26-4.45,2.8v4.75v11.96c0,0.03,0,0.04,0,0.07L297.57,185.27z"/>
		</g>
		<g>
			<path class="st0" d="M256.94,200.43v-16.72c0-1.54,1.97-2.79,4.4-2.79c2.43,0,4.4,1.25,4.4,2.79v16.72c0,1.54-1.97,2.79-4.4,2.79
				C258.9,203.21,256.94,201.97,256.94,200.43z"/>
		</g>
		<g>
			<path class="st0" d="M301.02,207.86c1.48,0.44,2.49,1.41,2.49,2.5v9.37v7.34c0,1.54-1.98,2.78-4.45,2.78s-4.45-1.24-4.45-2.78
				v-2.55v-8.72L301.02,207.86z"/>
		</g>
		<g>
			<path class="st0" d="M287.98,89.02H119c-12.25,0-22.23,9-22.23,20.07v15.34c3.18,0.86,6.17,2.1,8.89,3.69v-19.02
				c0-6.65,5.99-12.05,13.34-12.05h168.98c7.35,0,13.34,5.4,13.34,12.05v25.94c0.71-0.61,1.44-1.2,2.2-1.76
				c2.05-1.51,4.3-2.83,6.69-3.89v-20.28C310.2,98.02,300.23,89.02,287.98,89.02z M303.51,180.64c-0.75-0.56-1.49-1.15-2.2-1.76
				v26.51c0,0.84-0.1,1.67-0.3,2.47c-0.77,3.4-3.17,6.28-6.4,7.95c-1.95,1.04-4.23,1.61-6.64,1.61H119
				c-7.35,0-13.34-5.39-13.34-12.04v-25.52c-2.72,1.58-5.71,2.83-8.89,3.69v21.84c0,11.06,9.97,20.06,22.23,20.06h168.98
				c2.31,0,4.54-0.33,6.64-0.92c3.38-0.95,6.41-2.62,8.89-4.8c4.13-3.66,6.69-8.73,6.69-14.34v-20.86
				C307.81,183.47,305.56,182.15,303.51,180.64z"/>
		</g>
		<g>
			<path class="st0" d="M345.79,133.16v20.13c-3.33,1.54-6.33,3.54-8.91,5.91v-26.04c0-2.21-0.67-4.29-1.84-6.07
				c-2.3-3.57-6.59-5.97-11.5-5.97c-1.49,0-2.84-0.67-3.63-1.7c-0.51-0.65-0.82-1.45-0.82-2.31c0-2.22,2-4.01,4.45-4.01
				c7.55,0,14.21,3.4,18.23,8.59c2.18,2.8,3.58,6.1,3.92,9.7C345.75,131.96,345.79,132.56,345.79,133.16z"/>
			<path class="st0" d="M336.88,202.07c2.58,2.37,5.58,4.37,8.91,5.92v21.48c0,11.06-9.97,20.06-22.24,20.06H154.58
				c-12.25,0-22.23-9-22.23-20.06v-8.04c0-2.21,1.99-4.01,4.45-4.01c2.44,0,4.45,1.81,4.45,4.01v8.04c0,6.63,5.97,12.04,13.34,12.04
				h168.97c7.37,0,13.34-5.4,13.34-12.04V202.07z"/>
		</g>
	</g>
	<path class="st0" d="M345.79,153.3v-7.73c-3.18,1.17-6.17,2.65-8.91,4.43c-10.68,6.91-17.62,18.08-17.62,30.64
		s6.94,23.73,17.62,30.64c2.74,1.78,5.73,3.26,8.91,4.43V208c-3.33-1.55-6.33-3.55-8.91-5.92c-6.09-5.57-9.84-13.13-9.84-21.44
		s3.76-15.87,9.84-21.44C339.45,156.83,342.46,154.84,345.79,153.3z"/>
	<path class="st0" d="M105.66,120.08c-2.81-1.26-5.77-2.24-8.89-2.9v7.25c3.18,0.86,6.17,2.1,8.89,3.69
		c9.58,5.52,15.93,15.06,15.93,25.88c0,10.82-6.35,20.36-15.93,25.88c-2.72,1.58-5.71,2.83-8.89,3.69v7.25
		c3.12-0.67,6.09-1.64,8.89-2.9c14.04-6.22,23.7-19.08,23.7-33.92C129.36,139.16,119.7,126.29,105.66,120.08z"/>
	<path class="st0" d="M341.77,121.69c-4.87-1.72-10.19-2.66-15.75-2.66c-2.07,0-4.12,0.13-6.1,0.4c0.79,1.04,2.13,1.7,3.63,1.7
		c4.9,0,9.2,2.4,11.5,5.97c3.84,0.89,7.43,2.35,10.65,4.29C345.34,127.79,343.95,124.49,341.77,121.69z M301.31,135.03
		c0.71-0.61,1.44-1.2,2.2-1.76c2.05-1.51,4.3-2.83,6.69-3.89v-7.67c-2.84,0.99-5.54,2.26-8.05,3.76c-0.28,0.18-0.56,0.34-0.84,0.52
		c-2.44,1.52-4.69,3.27-6.69,5.21c-7.1,6.77-11.45,15.83-11.45,25.76c0,4.32,0.82,8.47,2.35,12.33c1.03,2.72,2.44,5.31,4.15,7.73
		c1.44,2.04,3.1,3.95,4.95,5.71c0.02,0.03,0.05,0.06,0.07,0.07c0.92,0.87,1.89,1.7,2.89,2.47c1.18,0.95,2.43,1.84,3.74,2.65
		c2.74,1.72,5.73,3.17,8.89,4.28v-7.67c-2.39-1.07-4.64-2.38-6.69-3.89c-0.75-0.56-1.49-1.15-2.2-1.76
		c-2.71-2.38-4.97-5.12-6.69-8.17c-2.35-4.15-3.67-8.81-3.67-13.75c0-4.94,1.33-9.61,3.67-13.75
		C296.34,140.15,298.61,137.41,301.31,135.03z"/>
</g>
</svg>
