<?xml version="1.0" encoding="utf-8"?>
<!-- Generator: Adobe Illustrator 25.0.0, SVG Export Plug-In . SVG Version: 6.00 Build 0)  -->
<svg version="1.1" id="Layer_1" xmlns="http://www.w3.org/2000/svg" xmlns:xlink="http://www.w3.org/1999/xlink" x="0px" y="0px"
	 viewBox="0 0 442.55 338.55" style="enable-background:new 0 0 442.55 338.55;" xml:space="preserve">
<style type="text/css">
	.st0{fill:#1A1A1A;}
</style>
<g>
	<path class="st0" d="M264.21,280.87h-85.84c-4.73,0-8.59-3.85-8.59-8.58V261.9c-36.58-21.48-60.09-62.6-60.09-105.5
		c0-2.37,1.92-4.29,4.29-4.29h214.6c2.37,0,4.29,1.92,4.29,4.29c0,42.9-23.5,84.02-60.09,105.5v10.39
		C272.8,277.02,268.95,280.87,264.21,280.87z M118.37,160.69c1.53,39.12,23.88,76.05,57.8,94.97c1.36,0.76,2.2,2.19,2.2,3.75v12.88
		h85.84v-12.88c0-1.56,0.84-2.99,2.2-3.75c33.93-18.92,56.27-55.85,57.8-94.97L118.37,160.69L118.37,160.69z"/>
	<path class="st0" d="M186.62,241.21c-0.71,0-1.42-0.18-2.09-0.54c-21.53-12-37.99-32.89-45.17-57.3c-0.67-2.27,0.63-4.66,2.91-5.33
		c2.28-0.68,4.66,0.63,5.33,2.91c6.54,22.27,21.53,41.31,41.11,52.22c2.07,1.15,2.81,3.77,1.66,5.84
		C189.59,240.41,188.12,241.21,186.62,241.21z"/>
	<path class="st0" d="M268.5,263.7h-77.26c-2.37,0-4.29-1.92-4.29-4.29s1.92-4.29,4.29-4.29h77.26c2.37,0,4.29,1.92,4.29,4.29
		C272.8,261.78,270.88,263.7,268.5,263.7z"/>
	<path class="st0" d="M259.92,143.52c-0.55,0-1.11-0.11-1.64-0.33c-1.6-0.66-2.65-2.23-2.65-3.96v-21.46c0-2.37,1.92-4.29,4.29-4.29
		s4.29,1.92,4.29,4.29v11.1l18.43-18.43c1.68-1.68,4.39-1.68,6.07,0s1.68,4.39,0,6.07l-25.75,25.75
		C262.13,143.09,261.04,143.52,259.92,143.52z"/>
	<path class="st0" d="M305.69,143.53c-0.47,0-0.95-0.08-1.42-0.24c-2.24-0.78-3.42-3.23-2.63-5.47c4.86-13.87,6.5-29.06,4.91-45.2
		c-42-4.13-77.65,14.24-93.6,48.43c-1,2.15-3.55,3.08-5.7,2.08s-3.08-3.56-2.08-5.7c18-38.6,58.53-58.9,105.8-52.95
		c1.95,0.24,3.48,1.78,3.72,3.72c2.35,18.72,0.69,36.37-4.94,52.46C309.12,142.42,307.46,143.53,305.69,143.53z"/>
	<path class="st0" d="M142.1,143.53c-1.94,0-3.71-1.33-4.17-3.31c-6.15-26.04-0.56-54.64,15.71-80.53c1.04-1.66,3.08-2.4,4.95-1.8
		c32.68,10.52,56.62,31.75,67.38,59.8c0.85,2.21-0.25,4.7-2.47,5.55c-2.21,0.85-4.7-0.26-5.54-2.47
		c-9.47-24.66-30.28-43.61-58.81-53.63c-13.69,23.14-18.26,48.27-12.87,71.11c0.54,2.31-0.88,4.62-3.19,5.16
		C142.76,143.49,142.43,143.53,142.1,143.53z"/>
	<path class="st0" d="M185.39,143.53c-1.75,0-3.4-1.08-4.03-2.83l-16.15-44.36c-0.81-2.23,0.34-4.69,2.56-5.5
		c2.23-0.81,4.69,0.34,5.5,2.56l16.15,44.36c0.81,2.23-0.34,4.69-2.57,5.5C186.38,143.44,185.88,143.53,185.39,143.53z"/>
	<path class="st0" d="M181.7,133.38c-0.72,0-1.43-0.18-2.07-0.53l-20.5-11.32c-2.08-1.15-2.83-3.76-1.68-5.83
		c1.14-2.08,3.76-2.83,5.83-1.68l16.48,9.1l7.13-15.28c1-2.15,3.55-3.08,5.7-2.08s3.08,3.55,2.08,5.7l-9.07,19.45
		c-0.5,1.08-1.43,1.9-2.56,2.27C182.6,133.32,182.15,133.38,181.7,133.38z"/>
</g>
</svg>
